<svg preserveAspectRatio="none" overflow="visible" style="display: block;" width="1880" height="54" viewBox="0 0 1880 54" fill="none" xmlns="http://www.w3.org/2000/svg">
<foreignObject x="-43.4925" y="-43.4925" width="1966.99" height="140.985"><div xmlns="http://www.w3.org/1999/xhtml" style="backdrop-filter:blur(21.75px);clip-path:url(#bgblur_0_0_4783_clip_path);height:100%;width:100%"></div></foreignObject><g id="&#231;&#159;&#169;&#229;&#189;&#162;" filter="url(#filter0_i_0_4783)" data-figma-bg-blur-radius="43.4925">
<path d="M0 6C0 2.68629 2.68629 0 6 0H1874C1877.31 0 1880 2.68629 1880 6V48C1880 51.3137 1877.31 54 1874 54H5.99997C2.68626 54 0 51.3137 0 48V6Z" fill="url(#paint0_linear_0_4783)"/>
<path d="M6 0.5H1874C1877.04 0.5 1879.5 2.96243 1879.5 6V48C1879.5 51.0376 1877.04 53.5 1874 53.5H6C2.96244 53.5 0.5 51.0376 0.5 48V6C0.5 3.05741 2.81084 0.654222 5.7168 0.506836L6 0.5Z" stroke="url(#paint1_linear_0_4783)"/>
</g>
<defs>
<filter id="filter0_i_0_4783" x="-43.4925" y="-43.4925" width="1966.99" height="140.985" filterUnits="userSpaceOnUse" color-interpolation-filters="sRGB">
<feFlood flood-opacity="0" result="BackgroundImageFix"/>
<feBlend mode="normal" in="SourceGraphic" in2="BackgroundImageFix" result="shape"/>
<feColorMatrix in="SourceAlpha" type="matrix" values="0 0 0 0 0 0 0 0 0 0 0 0 0 0 0 0 0 0 127 0" result="hardAlpha"/>
<feOffset/>
<feGaussianBlur stdDeviation="2"/>
<feComposite in2="hardAlpha" operator="arithmetic" k2="-1" k3="1"/>
<feColorMatrix type="matrix" values="0 0 0 0 0.764706 0 0 0 0 0.819608 0 0 0 0 1 0 0 0 0.2 0"/>
<feBlend mode="normal" in2="shape" result="effect1_innerShadow_0_4783"/>
</filter>
<clipPath id="bgblur_0_0_4783_clip_path" transform="translate(43.4925 43.4925)"><path d="M0 6C0 2.68629 2.68629 0 6 0H1874C1877.31 0 1880 2.68629 1880 6V48C1880 51.3137 1877.31 54 1874 54H5.99997C2.68626 54 0 51.3137 0 48V6Z"/>
</clipPath><linearGradient id="paint0_linear_0_4783" x1="-863.678" y1="14.1665" x2="-862.652" y2="84.0845" gradientUnits="userSpaceOnUse">
<stop stop-color="#040C12" stop-opacity="0.498039"/>
<stop offset="0.45" stop-color="#010A13" stop-opacity="0.298039"/>
<stop offset="1" stop-color="#082A41" stop-opacity="0.101961"/>
</linearGradient>
<linearGradient id="paint1_linear_0_4783" x1="-795.746" y1="15.7318" x2="-794.451" y2="84.2121" gradientUnits="userSpaceOnUse">
<stop stop-color="#79CAFC" stop-opacity="0.2"/>
<stop offset="0.295833" stop-color="#72A9FE" stop-opacity="0.101961"/>
<stop offset="1" stop-color="#0A5F94" stop-opacity="0.121569"/>
</linearGradient>
</defs>
</svg>
